<svg width="556" height="555" viewBox="0 0 556 555" fill="none" xmlns="http://www.w3.org/2000/svg"><path d="M278 481.291c126.332 0 228.745-102.412 228.745-228.744 0-126.333-102.413-228.745-228.745-228.745-126.332 0-228.745 102.412-228.745 228.745 0 126.332 102.413 228.744 228.745 228.744z" fill="#E2F1FF"/><path d="M412.632 152.779a16.11 16.11 0 01-11.379-4.702c-69.137-69.137-181.598-69.137-250.708-.027-6.27 6.27-16.46 6.27-22.73 0-6.271-6.271-6.271-16.46 0-22.731 81.677-81.65 214.545-81.65 296.195 0 6.271 6.271 6.271 16.46 0 22.731-3.135 3.135-7.243 4.702-11.378 4.702v.027z" fill="#C3DCF4"/><path d="M373.117 192.267a16.111 16.111 0 01-11.379-4.703c-22.919-22.919-53.434-35.568-85.84-35.568-32.406 0-62.92 12.622-85.839 35.568-6.271 6.27-16.46 6.27-22.731 0-6.27-6.27-6.27-16.46 0-22.73 29.001-29.001 67.569-44.974 108.597-44.974 41.028 0 79.597 15.973 108.597 44.974 6.271 6.27 6.271 16.46 0 22.73-3.135 3.135-7.243 4.703-11.378 4.703h-.027z" fill="#C3DCF4"/><path d="M333.603 231.782a16.115 16.115 0 01-11.379-4.703c-12.378-12.379-28.838-19.19-46.352-19.19-17.514 0-33.974 6.811-46.352 19.19-6.271 6.27-16.46 6.27-22.731 0-6.27-6.27-6.27-16.46 0-22.73 18.46-18.46 43.001-28.622 69.083-28.622s50.623 10.162 69.082 28.622c6.271 6.27 6.271 16.46 0 22.73-3.135 3.135-7.243 4.703-11.378 4.703h.027zm-57.704 67.893c16.792 0 30.406-13.613 30.406-30.406s-13.614-30.406-30.406-30.406c-16.793 0-30.406 13.613-30.406 30.406s13.613 30.406 30.406 30.406z" fill="#C3DCF4"/><path d="M420.483 512.446s7.544 9.872 7.544 19.743h-82.473c0-9.258 28.045-11.167 28.045-19.743h46.884z" fill="#000"/><path d="M358.197 217.125l-9.087 61.733c-1.62 10.979 8.422 20.084 19.188 17.415l29.981-7.424-2.438-78.979" fill="#824F36"/><path d="M285.602 386.751l-46.176-22.061-11.159-20.629h82.994l69.866-77.469v104.585l-22.633 12.915a78.64 78.64 0 01-72.883 2.651l-.009.008z" fill="#FFBD6E"/><path d="M236.357 344.061h-8.09l11.159 20.629 25.428 12.147-28.497-32.776z" fill="#FFBD6E"/><path d="M459.116 414.694l-3.844 19.146c-4.39 21.814-20.731 38.002-40.678 43.38l15.31 10.929c10.672 7.612 5.285 24.431-7.826 24.431h-49.066a77.808 77.808 0 01-42.401-12.565l-74.69-48.547c-13.801-8.967-19.828-26.11-14.671-41.744 5.592-16.972 22.718-27.337 40.355-24.422l177.511 29.384v.008z" fill="#4680E1"/><path d="M358.486 384.092l8.738-4.987 3.248-38.411c.153-1.816-2.371-2.421-3.061-.733L347.2 389.385a78.854 78.854 0 0011.286-5.293z" fill="#E59A48"/><path d="M386.097 251.929l24.14-9.342-11.542-40.593c-4.287-15.08-19.989-23.826-35.06-19.538-15.08 4.288-23.826 19.989-19.538 35.061l4.467 15.701c4.569 16.069 21.959 24.738 37.541 18.711" fill="#F4C9B8"/><path d="M344.83 220.117l-1.466 6.282a2.789 2.789 0 001.159 2.95l3.641 2.455-3.325-11.687h-.009z" fill="#F4C9B8"/><path d="M409.684 245.997l-22.36 14.858a26.656 26.656 0 00-11.798 19.93l-11.32 133.909h96.155c8.652 0 14.909-8.26 12.565-16.588l-18.08-64.291a197.33 197.33 0 00-21.891-49.979l-23.289-37.839h.018z" fill="#FFBD6E"/><path d="M410.63 243.695l-12.181-4.262-12.351 12.488-.179 15.497c-.026 2.115 2.624 3.086 3.971 1.45l20.749-25.181-.009.008z" fill="#F4C9B8"/><path d="M348.359 209.768a1.422 1.422 0 00.137-2.694c-.128-.051-3.231-1.227-6.99.026a1.427 1.427 0 00-.903 1.807 1.424 1.424 0 001.807.904c2.745-.921 5.046-.077 5.063-.069.298.111.605.12.895.035" fill="#824F36"/><path d="M348.232 221.404c1.04 2.284 2.106 4.032 2.779 3.725.665-.307.043-2.259-.997-4.535-1.04-2.285-2.106-4.032-2.78-3.725-.664.307-.042 2.259.998 4.535zm10.015 18.6c-.511.145-.8.614-.707 1.074.103.495.58.81 1.074.708.231-.043.452-.103.674-.162 4.236-1.202 7.535-5.499 7.501-9.778a.91.91 0 00-.273-.639.904.904 0 00-.887-.23.92.92 0 00-.664.878c.026 3.503-2.694 7.015-6.18 8.013a6.552 6.552 0 01-.538.128v.008z" fill="#000"/><path d="M431.523 291.289l-16.75 4.91c-12.821 3.76-25.659-5.856-25.659-19.214v-58.477l-10.518-11.567a23.304 23.304 0 00-18.285-7.604l-17.228.759a3.723 3.723 0 01-3.802-4.535l.724-3.197a7.41 7.41 0 015.192-5.481l36.007-10.238c11.32-3.222 23.314 2.259 28.284 12.923l34.54 74.051c5.183 11.116-.749 24.235-12.513 27.679l.008-.009z" fill="#824F36"/><path d="M378.938 216.733a6.076 6.076 0 014.185-7.51 6.076 6.076 0 017.51 4.185 6.078 6.078 0 01-4.186 7.51 6.076 6.076 0 01-7.509-4.185z" fill="#F4C9B8"/><path d="M211.157 303.797l-4.675 2.313 39.069 78.706 4.814-1.793-39.208-79.226z" fill="#000"/><path d="M245.548 379.608v5.217h72.555v-5.217h-72.555z" fill="#000"/><path d="M282.423 376.172l-6.582 3.206a2.229 2.229 0 01-2.702-.589 2.235 2.235 0 01.265-3.103l21.012-18.139c4.509-3.896 11.219-3.785 15.609.238l12.514 11.47-3.996 17.01-17.998-9.718a19.838 19.838 0 00-18.131-.383l.009.008zm-68.415-48.87l1.373 13.239a5.224 5.224 0 01-2.762 5.165c-3.026 1.603-3.725 5.627-1.424 8.158l6.198 6.803a17.13 17.13 0 0012.676 5.6h6.282l-19.674-39.74c-.699-1.415-2.839-.793-2.677.775h.008z" fill="#F4C9B8"/><path d="M422.164 482.633c-12.326 7.067-28.591 8.533-42.707 2.387l-44.591-19.427c-.793-.349-.375-1.543.46-1.321l51.965 13.929a46.425 46.425 0 0027.312-.963l7.569 5.404-.008-.009z" fill="#306DC6"/><path d="M368.478 417.985l-49.995-31.737 4.007-17.023 54.13 10.383 23.791-72.79 45.503 75.398-21.055 26.349c-13.639 17.066-37.934 21.124-56.381 9.42z" fill="#FFBD6E"/><path d="M456.618 427.14l-32.546-10.016c-1.364-.418-1.057-2.43.366-2.43h34.677l-2.497 12.437v.009z" fill="#306DC6"/></svg>