<?xml version="1.0" encoding="UTF-8"?>
<svg width="1200pt" height="1200pt" version="1.1" viewBox="0 0 1200 1200" xmlns="http://www.w3.org/2000/svg">
 <g>
  <path d="m799.59 1056.8h143.91v-30h-132.91c11.293-31.379 21.098-61.285 29.207-89.426 12.781 2.6172 26.184 2.0625 38.953-2.1484 19.262 19.043 45.145 29.762 72.551 29.762 27.742 0 53.809-10.957 73.129-30.395 8.2188 2.9414 16.656 4.4141 25.211 4.4141 42.66 0 77.363-34.703 77.363-77.352 0-42.648-34.715-77.363-77.363-77.363-8.5547 0-16.992 1.4883-25.211 4.4297-19.309-19.453-45.371-30.406-73.129-30.406-27.406 0-53.281 10.727-72.551 29.762-2.3398-0.76953-4.7266-1.1992-7.0938-1.7383 28.262-227.87-66.539-306.06-97.078-324.95l-0.003906-205.16c0-58.969-17.652-104.5-52.453-135.34-58.129-51.504-142.2-41.977-145.16-41.617-144.59 11.762-183.33 131.44-192.34 171.95h-43.02l-3.1328 1.5352c-26.051 12.805-41.449 30.551-45.742 52.754-7.7773 40.176 25.738 78.047 27.168 79.645l31.223 34.777-5.1602-46.453c-0.68359-6.1445 0.33594-10.777 3.1094-14.184 4.5-5.5195 13.211-7.6445 16.801-8.0898h32.074c2.3867 27.66-0.28906 83.52-37.715 170.86l-5.2578 12.266c-53.051 123.54-145.61 339.23-129.09 510.7h-68.363v30h72.527c1.5977 8.7852 3.4062 17.473 5.6758 25.945h-163.71v30h205.12l-6.9492-19.934c-2.4609-7.0664-4.5234-14.363-6.3945-21.742 0.20312 0 0.40625 0.058594 0.61328 0.058594 8.7344 0 17.09-2.1484 24.793-6.4219 16.078-8.9297 26.566-25.488 33.145-40.43 2.3281 1.7773 4.7539 3.4453 7.4648 4.7031 5.6758 2.6289 11.762 3.9492 18.301 3.9492 4.9453 0 10.176-0.83984 15.648-2.3633-8.4375 19.656-14.594 43.188-12.707 68.293l29.914-2.2578c-3.8164-50.855 36.121-96.887 39.156-100.3 21.168-18.18 45.023-43.309 71.844-75.469 2.375 0.48047 4.7891 0.80469 7.2617 0.80469 7.4648 0 15.324-2.2305 23.207-5.6289-48 97.117-99.684 171.62-100.71 173.11l24.574 17.207c8.7109-12.445 213.1-307.13 184.56-502.77-8.4727-58.078-32.977-99.973-72.828-124.51-29.773-18.336-63.516-23.988-93.574-24.227 5.6992-15.66 10.105-31.441 12.938-47.137l-29.531-5.3047c-3.2383 18.012-8.7852 36.18-16.273 54.168-8.3984 0.96094-16.117 2.207-22.836 3.5039 18.887-58.754 21.312-100.5 19.32-127.09h23.027v-30l-87.145 0.046876c-2.4102 0.17969-23.809 2.2695-37.5 18.348-3.707-8.7734-6.1094-18.805-4.2461-28.391 2.2695-11.734 11.184-21.816 26.508-30h61.789l1.5-13.32c0.45703-4.0664 8.8203-70.68 61.477-116.55 12.684 9.7422 37.559 30.098 64.934 59.004-14.531 8.0742-26.316 19.68-26.316 34.633 0 31.176 51.109 48 72 48 4.5 0 10.43-0.82813 16.922-2.3633 13.414 21.383 24.695 43.152 33.324 64.895 46.656 117.62 99.949 130.11 120.46 130.11 0.61328 0 0.98438-0.058594 1.5352-0.085937 25.055 15.121 194.96 139.44-10.547 624.6l-8.8203 20.844h375.07v-30l-329.93 0.007813c6.1914-15.035 12.012-29.762 17.496-44.16zm-313.53-552.28c7.7656 0.91016 15.551 2.3633 23.281 4.4648-25.703 55.055-65.125 150.88-50.688 194.09-79.586 82.535-98.594 77.605-99.18 77.41-11.34-10.691 7.8945-91.391 40.453-170.68 28.402-20.062 60.84-52.801 86.133-105.29zm-150.35 293.71c-21.312 62.293-51.227 118.63-63.719 120.28-0.046876-0.023437-4.0547-2.3281-8.9023-15.613 15.793-91.523 49.176-185.91 80.855-264.7 3.8047-1.1641 8.7617-2.8906 14.676-5.3398-22.742 61.02-43.789 136.36-22.91 165.37zm-61.078 258.5c-3.3477 1.8594-8.7461 3.6133-17.027 1.5586-5.207-35.809-4.8008-74.258-0.43359-113.83 4.4023 2.5195 9.1328 3.9492 14.281 3.9492h0.023437c8.207 0 16.273-4.0312 24.059-10.715-1.1758 23.879-0.15625 50.316 6.3125 71.773-2.8555 12.133-11.82 38.711-27.215 47.266zm67.789-36.719c-21.926-10.164-19.559-84.301-10.992-133.02 13.488-26.195 24.613-55.5 31.934-76.824 25.586-2.3281 62.484-29.785 116.73-86.09 2.8789 0.78125 5.9141 1.2461 9.1914 1.2461 2.8555 0 5.9023-0.38281 9.0703-0.97266-21.73 62.039-48.527 155.55-29.629 195.78-88.246 105.81-118.87 103.31-126.31 99.879zm203.93-137.12c-38.832 32.102-49.262 26.543-49.344 26.484-15.289-10.871 3.4336-106.14 39.312-201.49 18.66-11.461 40.801-28.691 67.066-52.055 1.418 70.332-24.371 152.32-57.035 227.06zm53.398-264.34c-92.965 85.871-112.07 76.586-112.26 76.441-11.41-8.4102 7.9805-85.199 49.777-174.84 1.7031 0.9375 3.4688 1.7383 5.1367 2.7734 30.145 18.609 49.32 50.867 57.348 95.625zm-146.52-115.25c-29.578 55.094-67.367 82.691-93.336 96.035 7.9922-19.105 15.66-36.973 22.609-53.16l5.2695-12.277c3.2383-7.5586 6.1797-14.855 8.9531-21.996 10.184-2.7344 31.34-7.5586 56.504-8.6016zm88.801-257.91c2.0039-6.5039 27.059-18.422 42.047-18.422 14.676 0 39 11.426 41.891 18-2.8906 6.5742-27.215 18-41.891 18-15 0.015625-40.043-11.898-42.047-17.578zm120.18 99.062c-8.6172-21.719-19.621-43.414-32.629-64.727 14.617-8.0742 26.496-19.727 26.496-34.738 0-31.176-51.109-48-72-48-4.1289 0-9.4688 0.68359-15.336 1.9805-27.625-30.457-53.555-52.848-69.828-65.82 21.406-12.371 48-21.336 81.047-24.023 0.74219-0.070312 74.543-8.2188 122.43 34.355 27.996 24.898 42.203 62.832 42.203 112.75v197.23c-17.266-5.8477-50.195-27.82-82.379-109.01zm213.95 474.9 10.727 5.2812 7.5586-9.2656c14.004-17.207 34.738-27.07 56.867-27.07 22.477 0 43.402 10.152 57.434 27.84l7.7656 9.793 11.027-5.8672c7.2227-3.8398 14.664-5.7852 22.105-5.7852 26.125 0 47.363 21.254 47.363 47.363 0 26.113-21.254 47.352-47.363 47.352-7.4648 0-14.891-1.9453-22.105-5.7734l-11.027-5.8672-7.7656 9.793c-14.027 17.688-34.969 27.828-57.434 27.828-22.141 0-42.863-9.8633-56.879-27.07l-7.5469-9.2539-10.727 5.2812c-9.3359 4.6094-19.129 5.7617-28.43 4.2461 8.6172-32.965 15.035-63.562 19.656-92.062 2.9414 0.83984 5.8828 1.8125 8.7734 3.2383z"/>
  <path d="m481.26 388.36c0.46875-19.477-1.8125-31.105-2.0742-32.363l-29.387 6.0117c0.011719 0.097656 1.8594 9.5742 1.4766 25.633z"/>
  <path d="m780.24 691.73c-1.9805 102.3-39.707 243.13-112.11 418.56l27.73 11.438c73.824-178.88 112.31-323.36 114.37-429.41z"/>
  <path d="m807.89 640.22c-10.199-85.332-49.164-105.77-53.578-107.82l-12.984 27.035c0.27734 0.14453 28.609 15.961 36.77 84.348z"/>
  <path d="m630.16 129.04-2.1602 29.914c2.6055 0.19141 63.84 5.5312 72.035 87.527l29.855-2.9766c-8.543-85.473-68.977-112.24-99.73-114.46z"/>
  <path d="m193.05 265.36h30c0-39.012 31.738-70.754 70.754-70.754v-30c-36.191 0-67.992 19.188-85.754 47.914-17.773-28.727-49.559-47.914-85.754-47.914v30c39.016 0.003907 70.754 31.742 70.754 70.754z"/>
  <path d="m977.2 574.67h30c0-39.012 31.754-70.754 70.754-70.754v-30c-36.191 0-67.992 19.188-85.754 47.914-17.762-28.727-49.57-47.914-85.754-47.914v30c39.004-0.011718 70.754 31.73 70.754 70.754z"/>
  <path d="m150.1 580.4c5.2305 0 10.414-0.71875 15.492-2.1484 14.305 13.234 33.023 20.641 52.801 20.641 20.004 0 38.844-7.5469 53.195-21.035 5.4961 1.6914 11.113 2.543 16.812 2.543 32.746 0 59.398-26.641 59.398-59.398 0-32.746-26.641-59.387-59.398-59.387-5.6992 0-11.328 0.85156-16.812 2.5312-14.34-13.488-33.191-21.035-53.195-21.035-19.777 0-38.496 7.4141-52.801 20.641-5.0742-1.4297-10.262-2.1484-15.492-2.1484-32.746 0-59.398 26.641-59.398 59.387-0.003907 32.773 26.637 59.41 59.398 59.41zm12.898-85.629 10.715 5.2812 7.5469-9.2656c9.1562-11.23 22.691-17.676 37.141-17.676 14.664 0 28.332 6.625 37.512 18.191l7.7656 9.793 11.027-5.8789c4.4883-2.3867 9.0977-3.6016 13.691-3.6016 16.211 0 29.398 13.188 29.398 29.387 0 20.797-22.691 36.648-43.105 25.789l-11.027-5.8672-7.7656 9.793c-9.1797 11.555-22.848 18.191-37.512 18.191-14.449 0-27.984-6.4453-37.141-17.688l-7.5469-9.2656-10.727 5.293c-4.2461 2.1016-8.5781 3.1562-12.887 3.1562-16.211 0-29.398-13.188-29.398-29.398 0.011718-20.512 22.043-36.219 42.312-26.234z"/>
  <path d="m957 1026.8h61.5v30h-61.5z"/>
  <path d="m105.7 1045.1h32.305v30h-32.305z"/>
 </g>
</svg>
